<?xml version="1.0" encoding="utf-8"?>
<!-- Generator: Adobe Illustrator 18.1.1, SVG Export Plug-In . SVG Version: 6.00 Build 0)  -->
<svg version="1.1" id="Layer_1" xmlns="http://www.w3.org/2000/svg" xmlns:xlink="http://www.w3.org/1999/xlink" x="0px" y="0px"
	 viewBox="0 0 29.3 26.5" enable-background="new 0 0 29.3 26.5" xml:space="preserve">
<g>
	<path fill="#58595B" d="M12,18.8c-0.5-2.7-2.3-5-4.1-7.2c-1.8-2.3-3-3.4-3-5.9c0-1,0.7-1.5,1.4-1.5s1.3,0.5,1.3,1.5v2.5h2.9
		L9.3,0.9C8.5,0.3,7.5,0,6.3,0C2.1,0,0.1,3,0.1,6.5c0,3.2,2.3,6.3,4.3,8.4c1.7,2.1,3,3.7,3,5.8c0,1.1-0.5,1.7-1.5,1.7
		c-1,0-1.6-0.7-1.6-1.7v-2.4H0v2.2c0,3.8,2.3,6,6.1,6c3.4,0,6-2.4,6-6.4c0-0.4,0-0.7-0.1-1.1L12,18.8z"/>
	<polygon fill="#231F20" points="23.1,16 21.5,0.5 17.9,0.5 16.2,16 14.6,0.5 9.8,0.5 13.5,26 17.6,26 19.4,12.7 21.1,26 25.2,26 
		29.3,0.5 24.8,0.5 	"/>
</g>
</svg>
