<?xml version="1.0" encoding="utf-8"?>
<!-- Generator: Adobe Illustrator 18.1.1, SVG Export Plug-In . SVG Version: 6.00 Build 0)  -->
<svg version="1.1" id="Layer_1" xmlns="http://www.w3.org/2000/svg" xmlns:xlink="http://www.w3.org/1999/xlink" x="0px" y="0px"
	 viewBox="0 0 151.3 26.5" enable-background="new 0 0 151.3 26.5" xml:space="preserve">
<g>
	<g>
		<path fill="#58595B" d="M4.9,5.7c0-1,0.7-1.5,1.4-1.5s1.3,0.5,1.3,1.5v2.5h4.3V6c0-3.6-2.2-6-5.5-6C2.1,0,0.1,3,0.1,6.5
			c0,3.2,2.3,6.3,4.3,8.4c1.7,2.1,3,3.7,3,5.8c0,1.1-0.5,1.7-1.5,1.7c-1,0-1.6-0.7-1.6-1.7v-2.4H0v2.2c0,3.8,2.3,6,6.1,6
			c3.4,0,6-2.4,6-6.4c0-3.3-2.1-6-4.2-8.5C6.1,9.2,4.9,8.2,4.9,5.7z"/>
		<polygon fill="#58595B" points="17.4,21.5 17.5,14.9 21.1,14.9 21.1,10.9 17.5,10.9 17.5,4.8 23,4.8 23,0.5 12.6,0.5 12.6,26 
			22.3,26 22.9,21.5 		"/>
		<path fill="#58595B" d="M26.4,0.5L22.7,26h4.4l0.4-4.1h2.9l0.3,4.1h4.9L32.1,0.5H26.4z M28.1,17.9L29.2,8l0.8,9.9H28.1z"/>
		<polygon fill="#58595B" points="33.7,4.9 37.2,4.9 37.2,26 42.1,26 42.1,4.9 44.4,4.9 44.4,0.5 33.7,0.5 		"/>
		<polygon fill="#58595B" points="44.9,4.9 47.2,4.9 47.2,26 52.1,26 52.1,4.9 55.6,4.9 55.6,0.5 44.9,0.5 		"/>
		<polygon fill="#58595B" points="61,0.5 56,0.5 56,26 66.1,26 66.1,21.6 61,21.6 		"/>
		<polygon fill="#58595B" points="71.5,21.5 71.5,14.9 75.1,14.9 75.1,10.9 71.5,10.9 71.5,4.8 76.9,4.8 76.3,0.5 66.6,0.5 66.6,26 
			77,26 77,21.5 		"/>
	</g>
	<g>
		<polygon fill="#231F20" points="90,16 88.4,0.5 84.9,0.5 83.1,16 81.5,0.5 76.7,0.5 80.4,26 84.5,26 86.3,12.7 88,26 92.1,26 
			96.2,0.5 91.8,0.5 		"/>
		<polygon fill="#231F20" points="96.2,26 106.6,26 106.6,21.5 101.1,21.5 101.1,14.9 104.7,14.9 104.7,10.9 101.1,10.9 101.1,4.8 
			106.6,4.8 106.6,0.5 96.2,0.5 		"/>
		<polygon fill="#231F20" points="107.2,26 117.5,26 117.5,21.5 112.1,21.5 112.1,14.9 115.7,14.9 115.7,10.9 112.1,10.9 112.1,4.8 
			117.5,4.8 117.5,0.5 107.2,0.5 		"/>
		<polygon fill="#231F20" points="130.6,0.5 125.8,0.5 123,11.6 123,0.5 118.1,0.5 118.1,26 123,26 123,19.6 124.1,16.1 126,26 
			130.9,26 127.5,11.2 		"/>
		<polygon fill="#231F20" points="136.2,0.5 131.3,0.5 131.3,26 141.3,26 141.3,21.6 136.2,21.6 		"/>
		<polygon fill="#231F20" points="146.4,0.5 144.5,10 142.5,0.5 137.5,0.5 141.8,15.6 141.8,26 146.7,26 146.7,15.6 151.3,0.5 		"/>
	</g>
</g>
</svg>
